<svg width="272" height="124" viewBox="0 0 272 124" fill="none" xmlns="http://www.w3.org/2000/svg">
<path d="M12.8 25.728H10.496V24.448H18.944C22.08 24.448 23.808 25.792 25.088 29.184L31.424 46.08H42.688V44.288L41.856 44.16C39.36 43.776 37.824 42.88 36.928 40.704L32.256 29.568C30.976 26.56 29.184 24.704 26.112 23.552C31.296 22.528 36.288 17.792 36.288 12.352C36.288 5.76 30.144 1.28 21.056 1.28H1.3113e-06V3.136L1.472 3.264C4.48 3.52 6.016 5.056 6.016 8V39.36C6.016 42.304 4.48 43.84 1.472 44.096L1.3113e-06 44.224V46.08H18.816V44.224L17.344 44.096C14.336 43.84 12.8 42.304 12.8 39.36V25.728ZM12.8 22.208V5.184H10.496V3.904H20.032C25.728 3.904 29.184 7.36 29.184 12.992C29.184 18.496 25.472 22.208 20.032 22.208H12.8ZM69.1895 29.056C69.4455 20.992 64.4535 15.36 57.0295 15.36C49.4135 15.36 43.0775 22.656 43.0775 31.424C43.0775 40.576 48.9655 46.72 57.7975 46.72C63.1735 46.72 67.5255 43.072 68.6135 37.504L68.4855 37.44C66.5015 41.024 63.3655 42.752 58.9495 42.752C53.4455 42.752 49.4775 37.632 49.2855 30.272H47.2375V29.056H69.1895ZM56.5815 17.92C60.2935 17.92 62.9175 21.632 62.9175 26.816H49.4135C49.9895 21.12 52.6135 17.92 56.5815 17.92ZM90.6075 44.8H91.8875V43.52H93.1675V42.24H94.4475V40.96H95.7275V39.68H97.0075V40.96H95.7275V46.08H103.408V44.8H105.968V43.52H102.128V0H98.2875V1.28H91.8875V3.84H94.4475V5.12H95.7275V16.64H93.1675V15.36H84.2075V16.64H81.6475V17.92H79.0875V19.2H77.8075V20.48H76.5275V23.04H75.2475V25.6H73.9675V30.72H72.6875V34.56H73.9675V39.68H75.2475V42.24H76.5275V43.52H77.8075V44.8H80.3675V46.08H90.6075V44.8ZM84.2075 42.24V40.96H82.9275V39.68H81.6475V38.4H80.3675V34.56H79.0875V25.6H80.3675V23.04H81.6475V20.48H82.9275V19.2H85.4875V17.92H91.8875V19.2H94.4475V20.48H95.7275V39.68H94.4475V40.96H91.8875V42.24H84.2075ZM122.58 44.8H125.14V43.52H126.42V42.24H127.7V44.8H128.98V46.08H135.38V44.8H137.94V43.52H139.22V42.24H136.66V43.52H134.1V20.48H132.82V19.2H131.54V17.92H130.26V16.64H126.42V15.36H117.46V16.64H114.9V17.92H112.34V20.48H111.06V25.6H116.18V23.04H117.46V21.76H114.9V20.48H116.18V19.2H117.46V17.92H125.14V19.2H126.42V21.76H127.7V28.16H122.58V29.44H118.74V30.72H116.18V32H113.62V33.28H111.06V34.56H109.78V43.52H111.06V44.8H112.34V46.08H122.58V44.8ZM117.46 43.52V40.96H116.18V34.56H117.46V33.28H118.74V32H122.58V30.72H126.42V29.44H127.7V39.68H126.42V40.96H123.86V42.24H122.58V43.52H117.46ZM161.62 43.84H163.86V41.6H152.66V39.36H150.42V37.12H148.18V21.44H150.42V19.2H154.9V16.96H157.14V19.2H161.62V21.44H159.38V23.68H161.62V25.92H166.1V19.2H163.86V16.96H159.38V14.72H152.66V16.96H148.18V19.2H145.94V21.44H143.7V25.92H141.46V37.12H143.7V41.6H145.94V43.84H148.18V46.08H161.62V43.84ZM166.1 41.6V39.36H163.86V41.6H166.1ZM179.545 19.2H188.505V16.96H179.545V8H177.305V10.24H175.065V12.48H172.825V14.72H170.585V16.96H168.345V19.2H172.825V43.84H175.065V46.08H184.025V43.84H186.265V41.6H179.545V19.2ZM188.505 41.6V39.36H186.265V41.6H188.505ZM194.933 7.68H201.333V1.28H194.933V7.68ZM207.733 42.88H201.333V17.28H191.733V20.48H194.933V42.88H191.733V46.08H207.733V42.88ZM216.68 41.6V37.12H212.2V23.68H216.68V19.2H230.12V41.6H225.64V46.08H230.12V41.6H234.6V19.2H230.12V14.72H216.68V19.2H212.2V23.68H207.72V37.12H212.2V41.6H216.68V46.08H221.16V41.6H216.68ZM251.895 20.48H264.695V46.08H271.095V14.08H245.495V46.08H251.895V20.48ZM67.5285 120.072L89.7365 102.216C98.1205 95.432 100.425 91.08 100.425 86.728C100.425 81.544 96.0085 77.704 88.7125 77.704C79.6245 77.704 73.8005 84.232 73.8005 88.072C73.8005 89.48 74.8245 90.824 76.4885 90.824C78.2805 90.824 80.2005 89.416 80.5205 86.728H78.9845C79.5605 84.104 82.9525 80.264 87.7525 80.264C91.6565 80.264 93.7685 82.696 93.7685 86.856C93.7685 91.272 91.0805 95.496 84.1685 101.896L61.2565 123.08H87.8165L93.7045 111.944H91.6565L89.6725 114.504C87.7525 117.064 84.6805 118.536 79.9445 118.536H71.3045L69.3205 120.072H67.5285ZM119.058 120.84H123.538V118.6H125.778V114.12H128.018V111.88H130.258V107.4H132.498V102.92H134.738V82.76H132.498V80.52H130.258V78.28H116.818V80.52H114.578V82.76H112.338V85H110.098V87.24H107.858V91.72H105.618V96.2H103.378V102.92H101.138V114.12H103.378V118.6H105.618V120.84H107.858V123.08H119.058V120.84ZM110.098 120.84V118.6H107.858V100.68H110.098V96.2H112.338V89.48H114.578V87.24H116.818V85H119.058V82.76H121.298V80.52H128.018V85H130.258V96.2H128.018V102.92H125.778V109.64H123.538V111.88H121.298V116.36H119.058V118.6H116.818V120.84H110.098ZM148.16 118.6H143.68V114.12H148.16V105.16H152.64V91.72H157.12V78.28H148.16V82.76H152.64V87.24H148.16V100.68H143.68V114.12H139.2V118.6H134.72V123.08H148.16V118.6ZM189.095 110.28H195.495V78.28H189.095V97.48H182.695V103.88H189.095V110.28ZM182.695 84.68V78.28H176.295V84.68H169.895V103.88H176.295V84.68H182.695ZM182.695 116.68H176.295V123.08H182.695V116.68H189.095V110.28H182.695V116.68ZM163.495 110.28V123.08H169.895V110.28H163.495Z" fill="white"/>
</svg>
