<svg width="73" height="50" viewBox="0 0 73 50" fill="none" xmlns="http://www.w3.org/2000/svg">
<g clip-path="url(#clip0_4_11)">
<path d="M49.5631 3.45401C50.833 3.45401 51.9261 3.91522 52.8404 4.83359C53.7547 5.75398 54.2118 6.84911 54.2118 8.11897C54.2118 9.38883 53.7588 10.4697 52.8505 11.3556C51.9423 12.2435 50.8472 12.6884 49.5652 12.6884C48.2831 12.6884 47.1311 12.2577 46.2696 11.3962C45.4082 10.5348 44.9774 9.43556 44.9774 8.10068C44.9774 6.76581 45.4244 5.70522 46.3184 4.80514C47.2124 3.90506 48.2953 3.45401 49.5652 3.45401H49.5631ZM49.5631 14.5374C50.833 14.5374 51.9261 14.9986 52.8404 15.9169C53.7547 16.8373 54.2118 17.9325 54.2118 19.2023C54.2118 20.4722 53.7588 21.5531 52.8505 22.4389C51.9423 23.3268 50.8472 23.7718 49.5652 23.7718C48.2831 23.7718 47.1311 23.341 46.2696 22.4796C45.4082 21.6181 44.9774 20.5189 44.9774 19.184C44.9774 17.8491 45.4244 16.7886 46.3184 15.8885C47.2124 14.9884 48.2953 14.5374 49.5652 14.5374H49.5631Z" fill="#D5443E"/>
<path d="M21.5714 29.1154V43.7889C21.5714 45.6195 21.0187 47.1128 19.9135 48.2669C18.8082 49.4209 17.3798 49.998 15.6284 49.998C13.5174 49.998 11.9062 49.0369 10.7908 47.1169C10.104 48.1531 9.36651 48.8906 8.58224 49.3336C7.79595 49.7765 6.82476 49.998 5.67071 49.998C3.84008 49.998 2.43612 49.4209 1.46087 48.2669C0.485612 47.1128 -0.00201416 45.4508 -0.00201416 43.2809V29.1133H6.06081V42.3686C6.06081 43.0249 6.11363 43.4577 6.21725 43.6669C6.32088 43.8762 6.53218 43.9798 6.85117 43.9798C7.44851 43.9798 7.74718 43.478 7.74718 42.4723V29.1113H13.808V42.3666C13.808 43.0046 13.8628 43.4313 13.9725 43.6507C14.0823 43.8701 14.2956 43.9798 14.6146 43.9798C15.2119 43.9798 15.5106 43.4414 15.5106 42.3666V29.1113H21.5714V29.1154Z" fill="#113046"/>
<path d="M30.4218 28.6074C33.3069 28.6074 35.7837 29.6579 37.848 31.7567C39.9122 33.8575 40.9464 36.3688 40.9464 39.2946C40.9464 42.2203 39.9061 44.7987 37.8256 46.8772C35.7451 48.9577 33.2175 49.998 30.243 49.998C27.2685 49.998 24.7653 48.9536 22.6746 46.8629C20.5839 44.7722 19.5396 42.2508 19.5396 39.2946C19.5396 36.3383 20.5921 33.7803 22.697 31.712C24.8019 29.6416 27.3762 28.6074 30.4218 28.6074ZM30.243 34.6093C28.9996 34.6093 27.939 35.0664 27.0633 35.9828C26.1876 36.8991 25.7487 38.0024 25.7487 39.2966C25.7487 40.5908 26.1896 41.6961 27.0694 42.6104C27.9491 43.5268 29.0077 43.9839 30.241 43.9839C31.4743 43.9839 32.5572 43.5288 33.4288 42.6186C34.3005 41.7083 34.7353 40.601 34.7353 39.2966C34.7353 37.9922 34.3005 36.8849 33.4288 35.9746C32.5572 35.0644 31.4966 34.6093 30.241 34.6093H30.243Z" fill="#113046"/>
<path d="M51.6782 41.0886C53.4784 39.6765 54.3805 37.9394 54.3805 35.8792C54.3805 33.8189 53.6531 32.1915 52.2004 30.879C50.896 29.7046 49.0613 29.1174 46.6923 29.1174H38.9146V49.4941H44.9754V42.9254C45.5199 42.9254 46.0136 43.2464 46.2371 43.7421L48.8114 49.4921H55.1709L51.6782 41.0866V41.0886ZM46.3489 37.6854H44.9754V34.5951H46.0502C47.5232 34.5951 48.2588 35.0786 48.2588 36.0437C48.2588 37.1389 47.6208 37.6854 46.3489 37.6854Z" fill="#113046"/>
<path d="M11.2703 0C8.12304 0 5.68288 0.780202 3.94977 2.34061C2.01755 4.08794 1.05246 6.30257 1.05246 8.98858C1.05246 11.6746 2.24918 14.0355 4.64464 15.9129L0 27.0836H8.45219L11.8737 19.44C12.1703 18.7797 12.8266 18.353 13.5499 18.353V27.0836H28.1279L21.6059 13.5418L28.1279 0H11.2703ZM13.552 11.3881H11.7274C10.0349 11.3881 9.18769 10.6607 9.18769 9.20598C9.18769 7.92393 10.167 7.28189 12.1236 7.28189H13.552V11.3881Z" fill="#D5443E"/>
<path d="M38.9146 27.0836H25.1412C22.8412 27.0836 20.968 26.3907 19.5193 25.003C18.0686 23.6153 17.3453 21.8233 17.3453 19.6229C17.3453 16.9735 18.5501 14.9498 20.9619 13.5499C19.6615 12.6884 18.735 11.762 18.1783 10.7765C17.6216 9.7891 17.3433 8.57003 17.3433 7.12138C17.3433 4.82141 18.0686 3.05986 19.5173 1.83673C20.9659 0.611565 23.0526 0 25.7772 0H38.9146V7.609H26.9211C26.0962 7.609 25.5537 7.67402 25.2895 7.80609C25.0254 7.93815 24.8954 8.20228 24.8954 8.60254C24.8954 9.35227 25.5252 9.72612 26.789 9.72612H38.9126V17.3351H26.919C26.1185 17.3351 25.5821 17.4042 25.3078 17.5403C25.0335 17.6785 24.8954 17.9467 24.8954 18.3469C24.8954 19.0967 25.5699 19.4705 26.919 19.4705H38.9126V27.0795L38.9146 27.0836Z" fill="#113046"/>
<path d="M60.4413 29.1154V49.492H54.3805V29.1154H60.4413ZM72.0712 29.1154L66.6971 38.3559L72.0407 49.492H65.2342L60.6221 38.236L65.8478 29.1154H72.0732H72.0712Z" fill="#113046"/>
</g>
<defs>
<clipPath id="clip0_4_11">
<rect width="72.0692" height="50" fill="white"/>
</clipPath>
</defs>
</svg>
