<svg width="121" height="27" viewBox="0 0 121 27" fill="none" xmlns="http://www.w3.org/2000/svg">
<path d="M-0.000101507 21.1201V20.8001L0.639899 20.5761C1.06657 20.4481 1.3439 20.2561 1.4719 20.0001C1.62123 19.7441 1.6959 19.4028 1.6959 18.9761V2.20812C1.6959 1.78145 1.62123 1.44012 1.4719 1.18412C1.32257 0.928116 1.03457 0.725449 0.607898 0.576117L-0.000101507 0.320116V0.000116348H7.7759C10.9546 0.000116348 13.2479 0.586783 14.6559 1.76012C16.0852 2.91212 16.7999 4.43745 16.7999 6.33612C16.7999 7.55212 16.5012 8.67212 15.9039 9.69612C15.3279 10.6988 14.3679 11.4988 13.0239 12.0961C11.6799 12.6935 9.86657 12.9921 7.5839 12.9921H6.4959V18.8801C6.4959 19.7121 6.9119 20.2561 7.7439 20.5121L8.7039 20.8001V21.1201H-0.000101507ZM6.4959 12.3521H7.7119C8.75723 12.3521 9.61057 12.1814 10.2719 11.8401C10.9332 11.4988 11.4239 10.9014 11.7439 10.0481C12.0639 9.19478 12.2239 8.01078 12.2239 6.49612C12.2239 4.96012 12.0426 3.76545 11.6799 2.91212C11.3386 2.05878 10.8266 1.47212 10.1439 1.15212C9.46123 0.810783 8.6079 0.640116 7.5839 0.640116H6.4959V12.3521ZM25.4366 5.24812C26.8233 5.24812 28.0073 5.53612 28.9886 6.11212C29.97 6.66678 30.7166 7.43478 31.2286 8.41612C31.762 9.37612 32.0286 10.4748 32.0286 11.7121C32.0286 11.9468 32.018 12.1921 31.9966 12.4481C31.9753 12.6828 31.9326 12.8961 31.8686 13.0881H22.3326C22.354 15.3921 22.7593 17.0561 23.5486 18.0801C24.3593 19.0828 25.554 19.5841 27.1326 19.5841C28.1993 19.5841 29.0633 19.4135 29.7246 19.0721C30.386 18.7308 31.0046 18.2295 31.5806 17.5681L31.9006 17.8561C31.2393 19.0295 30.354 19.9468 29.2446 20.6081C28.1566 21.2695 26.8446 21.6001 25.3086 21.6001C23.794 21.6001 22.45 21.2801 21.2766 20.6401C20.1033 19.9788 19.186 19.0401 18.5246 17.8241C17.8633 16.6081 17.5326 15.1575 17.5326 13.4721C17.5326 11.7228 17.9166 10.2401 18.6846 9.02412C19.4526 7.78678 20.434 6.84812 21.6286 6.20812C22.8446 5.56812 24.114 5.24812 25.4366 5.24812ZM25.3406 5.88812C24.722 5.88812 24.1886 6.08012 23.7406 6.46412C23.314 6.82678 22.9726 7.48812 22.7166 8.44812C22.482 9.38678 22.354 10.7201 22.3326 12.4481H27.8046C28.018 10.1228 27.9326 8.44812 27.5486 7.42412C27.1646 6.40012 26.4286 5.88812 25.3406 5.88812ZM33.6234 21.1201V20.8001L34.1034 20.6721C34.5301 20.5441 34.8181 20.3521 34.9674 20.0961C35.1381 19.8401 35.2234 19.5095 35.2234 19.1041V9.08812C35.2234 8.61878 35.1381 8.27745 34.9674 8.06412C34.8181 7.82945 34.5301 7.66945 34.1034 7.58412L33.6234 7.45612V7.13612L39.1274 5.28012L39.4474 5.60012L39.7354 8.35212V8.60812C40.0341 8.01078 40.4181 7.46678 40.8874 6.97612C41.3781 6.46412 41.9114 6.04812 42.4874 5.72812C43.0847 5.40812 43.6714 5.24812 44.2474 5.24812C45.0581 5.24812 45.6767 5.47212 46.1034 5.92012C46.5301 6.36812 46.7434 6.93345 46.7434 7.61612C46.7434 8.34145 46.5301 8.90678 46.1034 9.31212C45.6981 9.69612 45.2074 9.88812 44.6314 9.88812C43.7354 9.88812 42.9461 9.44012 42.2634 8.54412L42.1994 8.48012C41.9861 8.18145 41.7407 8.02145 41.4634 8.00012C41.1861 7.95745 40.9301 8.08545 40.6954 8.38412C40.4821 8.57612 40.3007 8.81078 40.1514 9.08812C40.0234 9.34412 39.8954 9.64278 39.7674 9.98412V18.9121C39.7674 19.7655 40.1407 20.2988 40.8874 20.5121L41.9114 20.8001V21.1201H33.6234ZM52.9719 21.6001C51.9266 21.6001 50.9879 21.4721 50.1559 21.2161C49.3239 20.9815 48.5559 20.6828 47.8519 20.3201L47.8839 16.5121H48.2039L49.2919 18.4321C49.7612 19.2855 50.2732 19.9255 50.8279 20.3521C51.4039 20.7575 52.1292 20.9601 53.0039 20.9601C54.0279 20.9601 54.8492 20.7361 55.4679 20.2881C56.1079 19.8188 56.4279 19.2001 56.4279 18.4321C56.4279 17.7281 56.2039 17.1521 55.7559 16.7041C55.3079 16.2561 54.4759 15.8508 53.2599 15.4881L51.9159 15.0721C50.6146 14.6881 49.5906 14.0908 48.8439 13.2801C48.0972 12.4694 47.7239 11.4774 47.7239 10.3041C47.7239 8.89612 48.2786 7.70145 49.3879 6.72012C50.4972 5.73878 52.0866 5.24812 54.1559 5.24812C54.9879 5.24812 55.7666 5.34412 56.4919 5.53612C57.2386 5.70678 57.9532 5.97345 58.6359 6.33612L58.4439 9.79212H58.1239L57.0039 7.80812C56.5986 7.10412 56.1932 6.61345 55.7879 6.33612C55.4039 6.03745 54.8172 5.88812 54.0279 5.88812C53.3026 5.88812 52.6199 6.09078 51.9799 6.49612C51.3399 6.90145 51.0199 7.47745 51.0199 8.22412C51.0199 8.94945 51.2866 9.52545 51.8199 9.95212C52.3746 10.3788 53.1852 10.7734 54.2519 11.1361L55.6919 11.5521C57.2279 12.0215 58.3266 12.6721 58.9879 13.5041C59.6492 14.3148 59.9799 15.2961 59.9799 16.4481C59.9799 18.0055 59.3612 19.2535 58.1239 20.1921C56.9079 21.1308 55.1906 21.6001 52.9719 21.6001ZM69.4694 21.6001C67.8481 21.6001 66.4401 21.2695 65.2454 20.6081C64.0507 19.9255 63.1227 18.9655 62.4614 17.7281C61.8214 16.4908 61.5014 15.0401 61.5014 13.3761C61.5014 11.7121 61.8427 10.2721 62.5254 9.05612C63.2294 7.84012 64.1787 6.90145 65.3734 6.24012C66.5894 5.57878 67.9547 5.24812 69.4694 5.24812C70.9841 5.24812 72.3387 5.57878 73.5334 6.24012C74.7281 6.88012 75.6667 7.80812 76.3494 9.02412C77.0534 10.2401 77.4054 11.6908 77.4054 13.3761C77.4054 15.0615 77.0747 16.5228 76.4134 17.7601C75.7734 18.9761 74.8561 19.9255 73.6614 20.6081C72.4881 21.2695 71.0907 21.6001 69.4694 21.6001ZM69.4694 20.9601C70.2161 20.9601 70.8134 20.7468 71.2614 20.3201C71.7094 19.8935 72.0294 19.1361 72.2214 18.0481C72.4347 16.9601 72.5414 15.4241 72.5414 13.4401C72.5414 11.4348 72.4347 9.88812 72.2214 8.80012C72.0294 7.71212 71.7094 6.95478 71.2614 6.52812C70.8134 6.10145 70.2161 5.88812 69.4694 5.88812C68.7227 5.88812 68.1147 6.10145 67.6454 6.52812C67.1974 6.95478 66.8667 7.71212 66.6534 8.80012C66.4614 9.88812 66.3654 11.4348 66.3654 13.4401C66.3654 15.4241 66.4614 16.9601 66.6534 18.0481C66.8667 19.1361 67.1974 19.8935 67.6454 20.3201C68.1147 20.7468 68.7227 20.9601 69.4694 20.9601ZM78.8109 21.1201V20.8001L79.2589 20.6721C80.0056 20.4588 80.3789 19.9361 80.3789 19.1041V9.08812C80.3789 8.61878 80.3042 8.27745 80.1549 8.06412C80.0056 7.82945 79.7176 7.66945 79.2909 7.58412L78.8109 7.45612V7.13612L84.2829 5.28012L84.6029 5.60012L84.8589 7.52012C85.6056 6.85878 86.4482 6.31478 87.3869 5.88812C88.3256 5.46145 89.2536 5.24812 90.1709 5.24812C91.5789 5.24812 92.6562 5.63212 93.4029 6.40012C94.1709 7.16812 94.5549 8.34145 94.5549 9.92012V19.1361C94.5549 19.9681 94.9602 20.4908 95.7709 20.7041L96.0589 20.8001V21.1201H88.5069V20.8001L88.9229 20.6721C89.6696 20.4375 90.0429 19.9148 90.0429 19.1041V8.89612C90.0429 7.53078 89.3602 6.84812 87.9949 6.84812C87.0562 6.84812 86.0322 7.31745 84.9229 8.25612V19.1361C84.9229 19.9681 85.2962 20.4908 86.0429 20.7041L86.3309 20.8001V21.1201H78.8109ZM101.795 21.6001C100.558 21.6001 99.5127 21.2481 98.6594 20.5441C97.8274 19.8401 97.4114 18.8268 97.4114 17.5041C97.4114 16.5015 97.9234 15.5841 98.9474 14.7521C99.9714 13.8988 101.582 13.2588 103.779 12.8321C104.121 12.7681 104.505 12.7041 104.931 12.6401C105.358 12.5548 105.806 12.4694 106.275 12.3841V9.85612C106.275 8.40545 106.094 7.39212 105.731 6.81612C105.39 6.21878 104.846 5.92012 104.099 5.92012C103.587 5.92012 103.182 6.09078 102.883 6.43212C102.585 6.75212 102.393 7.31745 102.307 8.12812L102.243 8.48012C102.201 9.39745 101.977 10.0694 101.571 10.4961C101.166 10.9228 100.665 11.1361 100.067 11.1361C99.5127 11.1361 99.0541 10.9655 98.6914 10.6241C98.3287 10.2828 98.1474 9.82412 98.1474 9.24812C98.1474 8.37345 98.4461 7.63745 99.0434 7.04012C99.6621 6.44278 100.473 5.99478 101.475 5.69612C102.478 5.39745 103.566 5.24812 104.739 5.24812C106.638 5.24812 108.099 5.71745 109.123 6.65612C110.169 7.57345 110.691 9.07745 110.691 11.1681V18.2401C110.691 19.2001 111.139 19.6801 112.035 19.6801H112.739L113.027 19.9361C112.622 20.4481 112.174 20.8428 111.683 21.1201C111.214 21.3975 110.542 21.5361 109.667 21.5361C108.729 21.5361 107.982 21.3228 107.427 20.8961C106.894 20.4481 106.542 19.8615 106.371 19.1361C105.731 19.8188 105.07 20.4055 104.387 20.8961C103.726 21.3655 102.862 21.6001 101.795 21.6001ZM103.747 19.6481C104.174 19.6481 104.569 19.5521 104.931 19.3601C105.315 19.1468 105.763 18.8268 106.275 18.4001V13.0241C106.062 13.0668 105.849 13.1095 105.635 13.1521C105.422 13.1948 105.177 13.2375 104.899 13.2801C103.918 13.5361 103.129 13.9735 102.531 14.5921C101.955 15.1895 101.667 16.0001 101.667 17.0241C101.667 17.8988 101.87 18.5601 102.275 19.0081C102.681 19.4348 103.171 19.6481 103.747 19.6481ZM117.846 10.5601C117.078 10.5601 116.427 10.2935 115.894 9.76012C115.361 9.22678 115.094 8.58678 115.094 7.84012C115.094 7.09345 115.361 6.44278 115.894 5.88812C116.427 5.33345 117.078 5.05612 117.846 5.05612C118.614 5.05612 119.265 5.33345 119.798 5.88812C120.331 6.44278 120.598 7.09345 120.598 7.84012C120.598 8.58678 120.331 9.22678 119.798 9.76012C119.265 10.2935 118.614 10.5601 117.846 10.5601ZM115.83 26.2081L115.638 25.7601C116.363 25.3121 116.907 24.7681 117.27 24.1281C117.654 23.5095 117.921 22.7308 118.07 21.7921L117.014 21.3441C116.395 21.0455 115.915 20.6615 115.574 20.1921C115.254 19.7015 115.094 19.2108 115.094 18.7201C115.094 17.9735 115.339 17.3548 115.83 16.8641C116.321 16.3521 116.961 16.0961 117.75 16.0961C118.561 16.0961 119.211 16.3841 119.702 16.9601C120.214 17.5148 120.47 18.3255 120.47 19.3921C120.47 20.5655 120.225 21.6108 119.734 22.5281C119.265 23.4668 118.678 24.2455 117.974 24.8641C117.27 25.5041 116.555 25.9521 115.83 26.2081Z" fill="black"/>
</svg>
