<svg width="574" height="129" viewBox="0 0 574 129" fill="none" xmlns="http://www.w3.org/2000/svg">
<path d="M0 100.907V99.3777L3.03604 98.3075C5.06008 97.6959 6.37568 96.7786 6.98288 95.5555C7.69128 94.3324 8.04549 92.7017 8.04549 90.663V10.5494C8.04549 8.51082 7.69128 6.88002 6.98288 5.65691C6.27449 4.43378 4.90828 3.46548 2.88423 2.752L0 1.52889V0H36.8878C51.9669 0 62.8459 2.80296 69.5252 8.40891C76.3055 13.9129 79.6959 21.2006 79.6959 30.272C79.6959 36.0818 78.2789 41.4329 75.4454 46.3254C72.713 51.1159 68.1589 54.9382 61.7833 57.7919C55.4076 60.6462 46.8055 62.0728 35.977 62.0728H30.8157V90.2044C30.8157 94.1795 32.7892 96.7786 36.736 98.0017L41.2901 99.3777V100.907H0ZM30.8157 59.015H36.5842C41.543 59.015 45.5911 58.1995 48.7283 56.5688C51.8654 54.9382 54.1932 52.0839 55.7112 48.007C57.2292 43.9301 57.9882 38.2732 57.9882 31.0365C57.9882 23.6978 57.1282 17.9899 55.4076 13.9129C53.7885 9.83584 51.3597 7.03291 48.1211 5.50402C44.8827 3.87319 40.8347 3.05778 35.977 3.05778H30.8157V59.015ZM120.667 25.0738C127.245 25.0738 132.862 26.4498 137.517 29.2018C142.172 31.8518 145.714 35.5212 148.143 40.2098C150.673 44.7965 151.938 50.0457 151.938 55.9573C151.938 57.0786 151.888 58.2506 151.786 59.4737C151.685 60.595 151.482 61.6142 151.179 62.5315H105.942C106.043 73.5395 107.966 81.4897 111.71 86.3821C115.556 91.1728 121.224 93.5679 128.712 93.5679C133.772 93.5679 137.871 92.7528 141.008 91.1217C144.146 89.491 147.08 87.096 149.813 83.9359L151.331 85.3119C148.194 90.9182 143.994 95.3008 138.731 98.4604C133.57 101.62 127.346 103.2 120.059 103.2C112.874 103.2 106.499 101.671 100.932 98.6133C95.3665 95.4537 91.0151 90.9688 87.8775 85.159C84.7404 79.3493 83.1717 72.4186 83.1717 64.3662C83.1717 56.0084 84.9933 48.9244 88.6365 43.1147C92.2798 37.203 96.9353 32.7182 102.602 29.6605C108.371 26.6027 114.393 25.0738 120.667 25.0738ZM120.211 28.1316C117.277 28.1316 114.746 29.0489 112.621 30.8836C110.597 32.6163 108.978 35.776 107.764 40.3627C106.651 44.8474 106.043 51.2177 105.942 59.4737H131.9C132.912 48.3639 132.507 40.3627 130.686 35.4702C128.864 30.5778 125.373 28.1316 120.211 28.1316ZM159.503 100.907V99.3777L161.78 98.7662C163.804 98.1546 165.171 97.2373 165.879 96.0142C166.689 94.791 167.093 93.2115 167.093 91.2746V43.4205C167.093 41.1781 166.689 39.5473 165.879 38.528C165.171 37.4068 163.804 36.6424 161.78 36.2347L159.503 35.6231V34.0942L185.613 25.2267L187.131 26.7556L188.497 39.904V41.1271C189.914 38.2732 191.736 35.6741 193.962 33.3298C196.29 30.8836 198.82 28.896 201.552 27.3671C204.386 25.8382 207.169 25.0738 209.901 25.0738C213.747 25.0738 216.682 26.144 218.706 28.2845C220.73 30.4249 221.742 33.1259 221.742 36.3876C221.742 39.853 220.73 42.5541 218.706 44.4907C216.783 46.3254 214.455 47.2427 211.723 47.2427C207.473 47.2427 203.728 45.1022 200.49 40.8214L200.186 40.5156C199.174 39.0886 198.01 38.3242 196.695 38.2222C195.379 38.0184 194.165 38.6299 193.051 40.0569C192.04 40.9742 191.179 42.0954 190.471 43.4205C189.864 44.6436 189.256 46.0705 188.649 47.7014V90.3573C188.649 94.4346 190.42 96.9826 193.962 98.0017L198.82 99.3777V100.907H159.503ZM251.289 103.2C246.33 103.2 241.877 102.588 237.93 101.365C233.983 100.244 230.34 98.8173 227 97.0844L227.152 78.8906H228.67L233.831 88.0639C236.058 92.1413 238.487 95.1991 241.118 97.2373C243.85 99.1742 247.291 100.142 251.44 100.142C256.298 100.142 260.194 99.0719 263.129 96.9315C266.165 94.6893 267.683 91.7333 267.683 88.0639C267.683 84.7004 266.621 81.9484 264.495 79.8079C262.37 77.6675 258.423 75.7311 252.655 73.9982L246.279 72.0106C240.106 70.1759 235.248 67.3222 231.706 63.4488C228.164 59.5755 226.393 54.8359 226.393 49.2301C226.393 42.5031 229.025 36.7953 234.287 32.1067C239.549 27.4181 247.089 25.0738 256.905 25.0738C260.852 25.0738 264.546 25.5325 267.987 26.4498C271.529 27.2652 274.919 28.5393 278.158 30.272L277.247 46.784H275.729L270.416 37.3049C268.493 33.9414 266.57 31.597 264.647 30.272C262.826 28.845 260.042 28.1316 256.298 28.1316C252.857 28.1316 249.619 29.0998 246.583 31.0365C243.547 32.973 242.029 35.725 242.029 39.2925C242.029 42.7579 243.294 45.5099 245.824 47.5485C248.455 49.587 252.301 51.4724 257.361 53.2053L264.192 55.1928C271.478 57.4355 276.69 60.5439 279.827 64.519C282.964 68.3924 284.533 73.0808 284.533 78.5848C284.533 86.0257 281.598 91.9884 275.729 96.4728C269.96 100.958 261.814 103.2 251.289 103.2ZM329.55 103.2C321.858 103.2 315.179 101.62 309.512 98.4604C303.844 95.1991 299.442 90.6124 296.305 84.7004C293.269 78.7888 291.751 71.8577 291.751 63.9075C291.751 55.9573 293.37 49.0773 296.609 43.2676C299.948 37.4578 304.451 32.973 310.119 29.8134C315.887 26.6536 322.364 25.0738 329.55 25.0738C336.735 25.0738 343.161 26.6536 348.828 29.8134C354.496 32.8711 358.948 37.3049 362.187 43.1147C365.527 48.9244 367.196 55.8555 367.196 63.9075C367.196 71.9599 365.628 78.9417 362.49 84.8533C359.454 90.663 355.103 95.1991 349.436 98.4604C343.87 101.62 337.241 103.2 329.55 103.2ZM329.55 100.142C333.092 100.142 335.925 99.1231 338.05 97.0844C340.176 95.0462 341.694 91.4275 342.604 86.2293C343.616 81.031 344.122 73.6924 344.122 64.2133C344.122 54.6324 343.616 47.2427 342.604 42.0445C341.694 36.8462 340.176 33.2278 338.05 31.1894C335.925 29.1508 333.092 28.1316 329.55 28.1316C326.007 28.1316 323.123 29.1508 320.897 31.1894C318.772 33.2278 317.203 36.8462 316.191 42.0445C315.28 47.2427 314.825 54.6324 314.825 64.2133C314.825 73.6924 315.28 81.031 316.191 86.2293C317.203 91.4275 318.772 95.0462 320.897 97.0844C323.123 99.1231 326.007 100.142 329.55 100.142ZM373.864 100.907V99.3777L375.989 98.7662C379.531 97.7471 381.302 95.2497 381.302 91.2746V43.4205C381.302 41.1781 380.948 39.5473 380.239 38.528C379.531 37.4068 378.165 36.6424 376.141 36.2347L373.864 35.6231V34.0942L399.822 25.2267L401.34 26.7556L402.554 35.9289C406.096 32.7692 410.094 30.1701 414.547 28.1316C419 26.093 423.402 25.0738 427.753 25.0738C434.433 25.0738 439.543 26.9085 443.085 30.5778C446.729 34.2471 448.55 39.853 448.55 47.3956V91.4275C448.55 95.4026 450.473 97.8999 454.319 98.919L455.685 99.3777V100.907H419.86V99.3777L421.833 98.7662C425.375 97.6453 427.146 95.1479 427.146 91.2746V42.5031C427.146 35.9798 423.908 32.7182 417.431 32.7182C412.978 32.7182 408.12 34.9606 402.858 39.4454V91.4275C402.858 95.4026 404.629 97.8999 408.171 98.919L409.537 99.3777V100.907H373.864ZM482.896 103.2C477.028 103.2 472.069 101.518 468.021 98.1546C464.074 94.791 462.101 89.9497 462.101 83.6302C462.101 78.84 464.53 74.4568 469.387 70.4817C474.245 66.4048 481.885 63.347 492.307 61.3084C493.93 61.0026 495.751 60.6968 497.772 60.391C499.798 59.9835 501.923 59.5755 504.148 59.1679V47.0898C504.148 40.1588 503.289 35.3174 501.567 32.5654C499.95 29.7114 497.369 28.2845 493.825 28.2845C491.397 28.2845 489.475 29.0998 488.057 30.7307C486.643 32.2596 485.733 34.9606 485.325 38.8338L485.021 40.5156C484.822 44.8984 483.759 48.1088 481.833 50.1475C479.912 52.1862 477.535 53.2053 474.698 53.2053C472.069 53.2053 469.893 52.3902 468.173 50.759C466.452 49.1284 465.592 46.9369 465.592 44.1849C465.592 40.0059 467.009 36.4895 469.843 33.6356C472.778 30.7816 476.624 28.6412 481.378 27.2142C486.136 25.7873 491.297 25.0738 496.861 25.0738C505.87 25.0738 512.801 27.3162 517.658 31.8009C522.62 36.1837 525.097 43.3695 525.097 53.3581V87.1466C525.097 91.7333 527.222 94.0266 531.472 94.0266H534.812L536.178 95.2497C534.257 97.6959 532.132 99.5817 529.802 100.907C527.578 102.232 524.39 102.894 520.239 102.894C515.789 102.894 512.246 101.875 509.613 99.8364C507.084 97.6959 505.415 94.8933 504.603 91.4275C501.567 94.6893 498.432 97.4924 495.192 99.8364C492.056 102.079 487.957 103.2 482.896 103.2ZM492.156 93.8737C494.181 93.8737 496.055 93.415 497.772 92.4977C499.594 91.4786 501.719 89.9497 504.148 87.911V62.2257C503.138 62.4297 502.127 62.6337 501.112 62.8373C500.102 63.0413 498.939 63.2453 497.621 63.4488C492.967 64.6719 489.224 66.7617 486.387 69.7173C483.655 72.5715 482.289 76.4444 482.289 81.3368C482.289 85.5159 483.252 88.6755 485.173 90.8159C487.099 92.8546 489.423 93.8737 492.156 93.8737ZM559.039 50.4533C555.395 50.4533 552.307 49.1795 549.779 46.6311C547.25 44.083 545.984 41.0252 545.984 37.4578C545.984 33.8904 547.25 30.7816 549.779 28.1316C552.307 25.4815 555.395 24.1565 559.039 24.1565C562.682 24.1565 565.77 25.4815 568.298 28.1316C570.827 30.7816 572.093 33.8904 572.093 37.4578C572.093 41.0252 570.827 44.083 568.298 46.6311C565.77 49.1795 562.682 50.4533 559.039 50.4533ZM549.475 125.216L548.564 123.075C552.003 120.935 554.584 118.336 556.306 115.278C558.128 112.323 559.394 108.602 560.101 104.117L555.092 101.977C552.155 100.55 549.878 98.7155 548.261 96.4728C546.743 94.1288 545.984 91.7844 545.984 89.4399C545.984 85.8728 547.146 82.9168 549.475 80.5724C551.804 78.1261 554.84 76.903 558.583 76.903C562.43 76.903 565.514 78.279 567.843 81.031C570.272 83.6813 571.486 87.5546 571.486 92.6506C571.486 98.2568 570.324 103.251 567.995 107.634C565.77 112.119 562.985 115.839 559.646 118.795C556.306 121.852 552.914 123.993 549.475 125.216Z" fill="white"/>
</svg>
