<svg xmlns="http://www.w3.org/2000/svg" xmlns:xlink="http://www.w3.org/1999/xlink" version="1.1" width="256" height="256" viewBox="0 0 256 256" xml:space="preserve">
<g style="stroke: none; stroke-width: 0; stroke-dasharray: none; stroke-linecap: butt; stroke-linejoin: miter; stroke-miterlimit: 10; fill: none; fill-rule: nonzero; opacity: 1;" transform="translate(1.4065934065934016 1.4065934065934016) scale(2.81 2.81)">
	<path d="M 44.913 26.682 H 15.231 c -8.28 0 -15.002 -3.611 -15.211 -11.841 C 0.016 14.972 0 15.099 0 15.231 v 31.303 c 8.265 10.233 20.908 16.784 35.087 16.784 h 0.682 c 8.28 0 12.002 3.611 12.211 11.841 c 0.003 -0.131 0.02 -0.258 0.02 -0.39 C 48 83.181 44.181 90 35.769 90 h 39 C 83.181 90 90 83.181 90 74.769 C 90 42.732 69.814 26.682 44.913 26.682 z" style="stroke: none; stroke-width: 1; stroke-dasharray: none; stroke-linecap: butt; stroke-linejoin: miter; stroke-miterlimit: 10; fill: rgb(31,104,137); fill-rule: nonzero; opacity: 1;" transform=" matrix(1 0 0 1 0 0) " stroke-linecap="round"/>
	<path d="M 90 74.769 L 90 74.769 c 0 -24.901 -20.186 -45.087 -45.087 -45.087 H 15.231 c -8.28 0 -15.002 -6.611 -15.211 -14.841 C 0.016 14.972 0 15.099 0 15.231 C 0 6.819 6.819 0 15.231 0 h 59.538 C 83.181 0 90 6.819 90 15.231 V 74.769" style="stroke: none; stroke-width: 1; stroke-dasharray: none; stroke-linecap: butt; stroke-linejoin: miter; stroke-miterlimit: 10; fill: rgb(33,117,155); fill-rule: nonzero; opacity: 1;" transform=" matrix(1 0 0 1 0 0) " stroke-linecap="round"/>
	<path d="M 0 74.769 V 43.534 c 8.265 10.233 20.908 16.784 35.087 16.784 h 0.682 c 8.28 0 15.002 6.611 15.211 14.841 c 0.003 -0.131 0.02 -0.258 0.02 -0.39 C 51 83.181 44.181 90 35.769 90 H 15.231 C 6.819 90 0 83.181 0 74.769 z" style="stroke: none; stroke-width: 1; stroke-dasharray: none; stroke-linecap: butt; stroke-linejoin: miter; stroke-miterlimit: 10; fill: rgb(27,93,122); fill-rule: nonzero; opacity: 1;" transform=" matrix(1 0 0 1 0 0) " stroke-linecap="round"/>
	<path d="M 45 70 c -13.854 0 -25.104 -11.042 -25 -25 c 0.104 -13.958 10.625 -25 25 -25 c 14.376 0 25 11.25 25 25 S 58.855 70 45 70 z M 52.396 66.146 l -7.083 -19.063 l -6.667 19.479 C 43.542 67.709 46.875 68.021 52.396 66.146 L 52.396 66.146 z M 35.105 65.104 L 24.48 36.042 C 23.021 39.167 22.709 41.771 22.5 45 C 22.605 53.541 27.396 61.354 35.105 65.104 z M 67.397 45 c 0.104 -5.521 -2.396 -9.896 -2.604 -10.521 c 0.209 4.271 -0.417 6.458 -1.146 8.854 l -7.292 20.937 C 65.522 58.75 67.291 50.521 67.5 45 H 67.397 L 67.397 45 z M 44.272 44.063 l -3.542 -9.688 l -2.604 -0.208 c -1.041 -0.729 -0.417 -1.875 0.313 -1.875 c 4.688 0.312 7.291 0.312 11.979 0 c 1.146 0 1.458 1.667 0.104 1.875 l -2.5 0.208 l 8.124 23.958 l 3.854 -13.125 c 0.209 -5.729 -1.354 -6.354 -3.438 -10.521 c -1.667 -3.229 0.104 -6.354 3.334 -6.458 c -2.605 -2.5 -7.917 -5.625 -14.896 -5.729 s -14.375 3.438 -18.75 10.104 l 7.709 -0.208 c 0.938 0.417 0.521 1.771 0 1.875 l -2.708 0.208 l 8.125 24.375 L 44.272 44.063 L 44.272 44.063 z" style="stroke: none; stroke-width: 1; stroke-dasharray: none; stroke-linecap: butt; stroke-linejoin: miter; stroke-miterlimit: 10; fill: rgb(255,255,255); fill-rule: nonzero; opacity: 1;" transform=" matrix(1 0 0 1 0 0) " stroke-linecap="round"/>
</g>
</svg>